<svg width="32" height="32" viewBox="0 0 32 32" fill="none" xmlns="http://www.w3.org/2000/svg">
<rect width="32" height="32" fill="#CEFF3A"/>
<path d="M5.96 24.1C5.33333 24.1 4.87 23.9533 4.57 23.66C4.27667 23.36 4.13 22.9133 4.13 22.32V17.74L5.4 17.27V22.35C5.4 22.5967 5.46667 22.78 5.6 22.9C5.73333 23.02 5.94333 23.08 6.23 23.08C6.34333 23.08 6.44333 23.0733 6.53 23.06C6.62333 23.04 6.71 23.0167 6.79 22.99V23.97C6.71 24.01 6.59667 24.04 6.45 24.06C6.30333 24.0867 6.14 24.1 5.96 24.1ZM3.15 19.89V18.9H6.79V19.89H3.15ZM7.5032 24V18.9H8.7632V24H7.5032ZM7.4432 18.06V16.67H8.8132V18.06H7.4432ZM12.0913 24.1C11.578 24.1 11.1247 23.9867 10.7313 23.76C10.3447 23.5333 10.038 23.22 9.81133 22.82C9.59133 22.4133 9.48133 21.9533 9.48133 21.44C9.48133 20.9267 9.59133 20.4733 9.81133 20.08C10.038 19.68 10.3447 19.3667 10.7313 19.14C11.1247 18.9133 11.578 18.8 12.0913 18.8C12.5113 18.8 12.8913 18.88 13.2313 19.04C13.5713 19.1933 13.8513 19.4133 14.0713 19.7C14.2913 19.98 14.4313 20.3067 14.4913 20.68H13.2813C13.208 20.4067 13.068 20.1933 12.8613 20.04C12.6547 19.8867 12.4047 19.81 12.1113 19.81C11.838 19.81 11.6013 19.8767 11.4013 20.01C11.208 20.1433 11.058 20.3333 10.9513 20.58C10.8447 20.8267 10.7913 21.1133 10.7913 21.44C10.7913 21.7733 10.8447 22.0633 10.9513 22.31C11.058 22.5567 11.2113 22.75 11.4113 22.89C11.6113 23.0233 11.8447 23.09 12.1113 23.09C12.4047 23.09 12.6547 23.0133 12.8613 22.86C13.068 22.7067 13.208 22.4933 13.2813 22.22H14.4913C14.4313 22.5933 14.288 22.9233 14.0613 23.21C13.8413 23.49 13.5613 23.71 13.2213 23.87C12.888 24.0233 12.5113 24.1 12.0913 24.1ZM15.1989 24V16.73H16.4589V24H15.1989ZM18.4889 24L16.1689 21.35L18.4189 18.9H19.9389L17.3389 21.58L17.4089 21.11L20.0389 24H18.4889ZM20.5751 24V16.8H21.8351V24H20.5751ZM25.2627 24.1C24.7227 24.1 24.2494 23.9867 23.8427 23.76C23.4427 23.5333 23.1294 23.22 22.9027 22.82C22.6827 22.42 22.5727 21.96 22.5727 21.44C22.5727 20.92 22.6827 20.4633 22.9027 20.07C23.1294 19.67 23.4427 19.36 23.8427 19.14C24.2427 18.9133 24.7094 18.8 25.2427 18.8C25.7494 18.8 26.1894 18.9067 26.5627 19.12C26.9361 19.3267 27.2261 19.62 27.4327 20C27.6394 20.38 27.7427 20.8233 27.7427 21.33C27.7427 21.4233 27.7394 21.51 27.7327 21.59C27.7261 21.67 27.7161 21.75 27.7027 21.83H23.3527V20.95H26.7327L26.4727 21.19C26.4727 20.71 26.3627 20.35 26.1427 20.11C25.9227 19.87 25.6161 19.75 25.2227 19.75C24.7961 19.75 24.4561 19.8967 24.2027 20.19C23.9561 20.4833 23.8327 20.9067 23.8327 21.46C23.8327 22.0067 23.9561 22.4267 24.2027 22.72C24.4561 23.0067 24.8127 23.15 25.2727 23.15C25.5394 23.15 25.7727 23.1 25.9727 23C26.1727 22.9 26.3194 22.7467 26.4127 22.54H27.6027C27.4361 23.02 27.1527 23.4 26.7527 23.68C26.3594 23.96 25.8627 24.1 25.2627 24.1Z" fill="black"/>
<path d="M20 10C20 10.9254 19.6791 11.8222 19.092 12.5376C18.505 13.2529 17.688 13.7426 16.7804 13.9231C15.8727 14.1037 14.9306 13.9639 14.1144 13.5277C13.2983 13.0914 12.6586 12.3857 12.3045 11.5307C11.9503 10.6758 11.9036 9.72443 12.1722 8.83886C12.4409 7.95329 13.0083 7.18826 13.7777 6.67412C14.5472 6.15999 15.4711 5.92855 16.3921 6.01926C17.313 6.10997 18.1741 6.5172 18.8284 7.17157L16 10H20Z" fill="black"/>
</svg>
