<svg width="48" height="48" viewBox="0 0 48 48" fill="none" xmlns="http://www.w3.org/2000/svg">
<rect width="48" height="48" fill="#CEFF3A"/>
<path d="M8.736 38.16C7.73333 38.16 6.992 37.9253 6.512 37.456C6.04267 36.976 5.808 36.2613 5.808 35.312V27.984L7.84 27.232V35.36C7.84 35.7547 7.94667 36.048 8.16 36.24C8.37333 36.432 8.70933 36.528 9.168 36.528C9.34933 36.528 9.50933 36.5173 9.648 36.496C9.79733 36.464 9.936 36.4267 10.064 36.384V37.952C9.936 38.016 9.75467 38.064 9.52 38.096C9.28533 38.1387 9.024 38.16 8.736 38.16ZM4.24 31.424V29.84H10.064V31.424H4.24ZM11.2051 38V29.84H13.2211V38H11.2051ZM11.1091 28.496V26.272H13.3011V28.496H11.1091ZM18.5461 38.16C17.7248 38.16 16.9995 37.9787 16.3701 37.616C15.7515 37.2533 15.2608 36.752 14.8981 36.112C14.5461 35.4613 14.3701 34.7253 14.3701 33.904C14.3701 33.0827 14.5461 32.3573 14.8981 31.728C15.2608 31.088 15.7515 30.5867 16.3701 30.224C16.9995 29.8613 17.7248 29.68 18.5461 29.68C19.2181 29.68 19.8261 29.808 20.3701 30.064C20.9141 30.3093 21.3621 30.6613 21.7141 31.12C22.0661 31.568 22.2901 32.0907 22.3861 32.688H20.4501C20.3328 32.2507 20.1088 31.9093 19.7781 31.664C19.4475 31.4187 19.0475 31.296 18.5781 31.296C18.1408 31.296 17.7621 31.4027 17.4421 31.616C17.1328 31.8293 16.8928 32.1333 16.7221 32.528C16.5515 32.9227 16.4661 33.3813 16.4661 33.904C16.4661 34.4373 16.5515 34.9013 16.7221 35.296C16.8928 35.6907 17.1381 36 17.4581 36.224C17.7781 36.4373 18.1515 36.544 18.5781 36.544C19.0475 36.544 19.4475 36.4213 19.7781 36.176C20.1088 35.9307 20.3328 35.5893 20.4501 35.152H22.3861C22.2901 35.7493 22.0608 36.2773 21.6981 36.736C21.3461 37.184 20.8981 37.536 20.3541 37.792C19.8208 38.0373 19.2181 38.16 18.5461 38.16ZM23.5183 38V26.368H25.5343V38H23.5183ZM28.7823 38L25.0703 33.76L28.6703 29.84H31.1023L26.9423 34.128L27.0543 33.376L31.2623 38H28.7823ZM32.1201 38V26.48H34.1361V38H32.1201ZM39.6204 38.16C38.7564 38.16 37.999 37.9787 37.3484 37.616C36.7084 37.2533 36.207 36.752 35.8444 36.112C35.4924 35.472 35.3164 34.736 35.3164 33.904C35.3164 33.072 35.4924 32.3413 35.8444 31.712C36.207 31.072 36.7084 30.576 37.3484 30.224C37.9884 29.8613 38.735 29.68 39.5884 29.68C40.399 29.68 41.103 29.8507 41.7004 30.192C42.2977 30.5227 42.7617 30.992 43.0924 31.6C43.423 32.208 43.5884 32.9173 43.5884 33.728C43.5884 33.8773 43.583 34.016 43.5724 34.144C43.5617 34.272 43.5457 34.4 43.5244 34.528H36.5644V33.12H41.9724L41.5564 33.504C41.5564 32.736 41.3804 32.16 41.0284 31.776C40.6764 31.392 40.1857 31.2 39.5564 31.2C38.8737 31.2 38.3297 31.4347 37.9244 31.904C37.5297 32.3733 37.3324 33.0507 37.3324 33.936C37.3324 34.8107 37.5297 35.4827 37.9244 35.952C38.3297 36.4107 38.9004 36.64 39.6364 36.64C40.063 36.64 40.4364 36.56 40.7564 36.4C41.0764 36.24 41.311 35.9947 41.4604 35.664H43.3644C43.0977 36.432 42.6444 37.04 42.0044 37.488C41.375 37.936 40.5804 38.16 39.6204 38.16Z" fill="black"/>
<path d="M32 15C32 16.8508 31.3582 18.6444 30.1841 20.0751C29.0099 21.5059 27.376 22.4852 25.5607 22.8463C23.7454 23.2074 21.8611 22.9279 20.2288 22.0554C18.5965 21.1829 17.3173 19.7714 16.609 18.0615C15.9007 16.3515 15.8072 14.4489 16.3445 12.6777C16.8817 10.9066 18.0165 9.37652 19.5554 8.34824C21.0944 7.31997 22.9422 6.85711 24.7841 7.03852C26.6261 7.21994 28.3481 8.0344 29.6569 9.34314L24 15H32Z" fill="black"/>
</svg>
